<svg xmlns="http://www.w3.org/2000/svg" xmlns:xlink="http://www.w3.org/1999/xlink" width="83" height="83" viewBox="0 0 83 83">
    <defs>
        <ellipse id="oxyucg89za" cx="42.085" cy="41.308" rx="41.5" ry="41"/>
    </defs>
    <g fill="none" fill-rule="evenodd">
        <g>
            <g>
                <g>
                    <g transform="translate(-289 -366) translate(204 160) translate(62 199) translate(22 6)">
                        <ellipse cx="42.5" cy="42.5" fill="#FFF" rx="41.5" ry="41"/>
                        <g transform="translate(.415 .692)">
                            <mask id="loh36e7mzb" fill="#fff">
                                <use xlink:href="#oxyucg89za"/>
                            </mask>
                            <use fill="#FFF" xlink:href="#oxyucg89za"/>
                            <path fill="#FFD94A" d="M48.041 89.368L30.32 76.968 29 13 61.005 13.747 86.464 43.206 109.878 66.62 66.143 114.773z" mask="url(#loh36e7mzb)" opacity=".412"/>
                        </g>
                    </g>
                    <g>
                        <path fill="#FEFEFE" d="M27.7 65.567H7.79c-3.4 0-6.157-2.826-6.157-6.312V7.85c0-3.486 2.756-6.312 6.157-6.312H27.7c3.4 0 6.157 2.826 6.157 6.312v51.405c0 3.486-2.757 6.312-6.158 6.312" transform="translate(-289 -366) translate(204 160) translate(62 199) translate(49 17)"/>
                        <path fill="#FEFEFE" d="M17.507 63.704V63.7c2.015 0 4.029.004 6.043-.002.75-.003 1.14-.402 1.108-1.1-.029-.644-.413-.97-1.17-.97-3.944-.005-7.888-.005-11.831-.005-.836 0-1.238.339-1.24 1.04 0 .698.394 1.037 1.239 1.04 1.95.004 3.9 0 5.851 0M7.427 2.132c.476 1.542 1.375 2.616 2.912 3.02.284.075.585.105.878.106 4.073.007 8.145-.047 12.215.027 2.07.037 3.646-1.162 4.205-3.117.913 0 1.85-.096 2.761.021 1.515.195 2.416 1.385 2.418 3.018.004 4.434 0 8.869 0 13.303v42.52c0 .39.024.787-.031 1.171-.222 1.54-1.403 2.554-2.975 2.555-6.171.004-12.343 0-18.514 0-1.972 0-3.944 0-5.917.002-1.903.002-3.115-1.22-3.115-3.16-.002-18.803-.002-37.606 0-56.41 0-1.843 1.193-3.05 3.001-3.056.719-.002 1.438 0 2.162 0" transform="translate(-289 -366) translate(204 160) translate(62 199) translate(49 17)"/>
                        <path fill="#419189" d="M9.63 2.147h15.727c-.247.701-.785 1.037-1.692 1.039-3.218.004-6.437.001-9.655.001-.91 0-1.821.013-2.731-.004-.696-.014-1.25-.302-1.65-1.036" transform="translate(-289 -366) translate(204 160) translate(62 199) translate(49 17)"/>
                        <path fill="#3FBEB1" d="M17.507 63.704c-1.95 0-3.901.003-5.851-.002-.845-.002-1.24-.341-1.239-1.04.002-.7.404-1.04 1.24-1.04 3.943.001 7.887.001 11.83.005.758.001 1.142.327 1.171.97.032.699-.357 1.098-1.108 1.1-2.014.007-4.028.003-6.043.003v.004z" transform="translate(-289 -366) translate(204 160) translate(62 199) translate(49 17)"/>
                        <path fill="#419189" d="M15.903 37.685l-1.594-3.912-2.233 5.49 3.827-1.578zm-3.433 2.867l5.587 2.446-1.652-4.07-3.935 1.624zM7.776 46.34l5.64-13.882-6.868-2.022v3.486l-.98.277v8.7l1.42.068v3.596c-1.095 0-2.195 1.584-3.348 1.584v-5.212h1.446v-.65c0-1.237.002-2.475 0-3.712-.006-1.921-.08-3.826-.316-5.747-.34-2.756.537-5.249 2.348-7.42l1.308.995-1.591 2.718 12.751 3.744.274-.583 4.915.89-.994 3.83-4.691-1.895.182-.928-3.824-1.125c1.825 4.498 3.958 9.747 5.746 14.158-.406.18-1.125-.54-1.556-.35-.243-.589-.46-1.157-.715-1.706-.09-.193-.24-.415-.418-.495-2.402-1.072-4.813-2.121-7.31-3.215-.734 1.798-1.465 3.582-2.213 5.41l-1.206-.514z" transform="translate(-289 -366) translate(204 160) translate(62 199) translate(49 17)"/>
                        <path fill="#3FBEB1" d="M26.924 43.241l1.646-.679-.685-1.683-.961 2.362m1.863-.144l-1.694.698 2.404 1.053-.71-1.751m-3.194 3.41l-.52-.222c.809-1.988 1.611-3.963 2.427-5.972l-2.954-.87v1.5l-.422.12v3.742l.61.03v1.547c-.47 0-.943.487-1.44.487V44.82h.622v-.28-1.597c-.002-.827-.034-1.646-.136-2.473-.146-1.185.232-2.258 1.01-3.192l.564.428-.685 1.17 5.486 1.61.118-.25 2.114.382c-.143.553-.28 1.085-.427 1.648l-2.018-.815.078-.4-1.645-.483 2.317 5.713c-.175.077-.33.145-.515.228-.104-.254-.197-.498-.307-.735-.039-.083-.104-.178-.18-.213-1.034-.46-2.07-.912-3.145-1.382l-.952 2.327" transform="translate(-289 -366) translate(204 160) translate(62 199) translate(49 17)"/>
                        <path fill="#8CD1C9" d="M21.028 47.636s8.637-4.598 12.624.85v14.139l-13.289-4.09.665-10.9z" transform="translate(-289 -366) translate(204 160) translate(62 199) translate(49 17)"/>
                        <path fill="#419189" d="M1.096 48.827S16.21 38.78 34.15 53.937v8.688s-.83 4.083-5.647 3.402h-24s-3.241-1.363-3.241-4.768l-.166-12.432z" transform="translate(-289 -366) translate(204 160) translate(62 199) translate(49 17)"/>
                        <path fill="#419189" d="M9.63 2.147c.399.734.953 1.022 1.649 1.036.91.017 1.82.004 2.731.004 3.218 0 6.437.003 9.655-.001.907-.002 1.445-.338 1.692-1.039H9.63zm-2.204-.016c-.723 0-1.442-.002-2.161 0-1.808.006-3 1.212-3 3.056-.003 18.803-.003 37.607-.001 56.41 0 1.94 1.212 3.162 3.115 3.16 1.973-.002 3.945-.002 5.917-.002 6.171 0 12.343.004 18.514 0 1.572-.001 2.753-1.014 2.975-2.555.055-.384.03-.78.03-1.171.002-14.174.002-28.347.002-42.52 0-4.435.003-8.869-.001-13.304-.002-1.632-.903-2.822-2.418-3.017-.91-.117-1.848-.021-2.76-.021-.56 1.955-2.135 3.154-4.206 3.117-4.07-.074-8.143-.02-12.214-.027-.294 0-.595-.03-.878-.105-1.538-.405-2.437-1.48-2.914-3.021zM4.087 66.837c-.197 0-.393-.048-.57-.14-.091-.048-.185-.092-.28-.133C1.42 65.778.242 63.985.24 61.968.237 43.059.236 24.15.238 5.24c0-3.106 2.04-5.183 5.069-5.184h24.49c3.01 0 5.16 2.2 5.16 5.3.003 18.757.002 37.514.001 56.27 0 2.492-1.089 4.125-3.357 5.069-.184.078-.498.141-.698.141H4.087z" transform="translate(-289 -366) translate(204 160) translate(62 199) translate(49 17)"/>
                    </g>
                </g>
            </g>
        </g>
    </g>
</svg>
