<svg xmlns="http://www.w3.org/2000/svg" xmlns:xlink="http://www.w3.org/1999/xlink" width="56" height="46" viewBox="0 0 56 46">
    <defs>
        <filter id="wrwobz36da" width="128.3%" height="136.1%" x="-14.1%" y="-18.1%" filterUnits="objectBoundingBox">
            <feMorphology in="SourceAlpha" operator="dilate" radius=".5" result="shadowSpreadOuter1"/>
            <feOffset in="shadowSpreadOuter1" result="shadowOffsetOuter1"/>
            <feGaussianBlur in="shadowOffsetOuter1" result="shadowBlurOuter1" stdDeviation="2"/>
            <feComposite in="shadowBlurOuter1" in2="SourceAlpha" operator="out" result="shadowBlurOuter1"/>
            <feColorMatrix in="shadowBlurOuter1" values="0 0 0 0 0 0 0 0 0 0 0 0 0 0 0 0 0 0 0.297967657 0"/>
        </filter>
        <rect id="ynfpcdq6jb" width="46" height="36" x="0" y="0" rx="8"/>
        <path id="feyiost5dc" d="M0 0.034L15.961 0.034 15.961 23 0 23z"/>
    </defs>
    <g fill="none" fill-rule="evenodd">
        <g>
            <g>
                <g>
                    <g>
                        <g transform="translate(-1252 -586) translate(0 -1) translate(1257 592)">
                            <use fill="#000" filter="url(#wrwobz36da)" xlink:href="#ynfpcdq6jb"/>
                            <use fill="#FFF" fill-opacity=".35" stroke="#979797" xlink:href="#ynfpcdq6jb"/>
                        </g>
                        <g>
                            <g transform="translate(-1252 -586) translate(0 -1) translate(1257 592) translate(8 6)">
                                <mask id="g8onfjtrtd" fill="#fff">
                                    <use xlink:href="#feyiost5dc"/>
                                </mask>
                                <path fill="#1B1B1B" d="M15.96 12.326v8.412c0 .293-.095.537-.319.72-.326.267-.769.252-1.092-.033l-4.062-3.597c-.504-.446-1.008-.893-1.514-1.337-.028-.024-.075-.038-.113-.038-1.658-.002-3.316-.001-4.974-.002-.355 0-.625-.155-.794-.479-.066-.128-.092-.268-.092-.412V9.013c0-.51.371-.887.87-.887h5.069c.051 0 .09-.014.13-.05l4.823-4.27c.237-.21.469-.428.716-.626.502-.4 1.24-.095 1.339.547.01.066.012.133.012.2v8.4" mask="url(#g8onfjtrtd)"/>
                            </g>
                            <path fill="#1B1B1B" d="M23.723 11.965l-.988-1.017c-.81-.834-1.621-1.67-2.435-2.503-.141-.145-.247-.302-.286-.493-.1-.483.357-.972.915-.982.328-.006.594.102.805.32l2.103 2.163 1.124 1.158.041.038.204-.209c1.026-1.055 2.05-2.112 3.078-3.165.267-.274.616-.37 1.01-.271.401.1.637.35.696.712.04.248-.043.473-.228.665l-3.077 3.166-.406.418.295.306c1.043 1.073 2.085 2.147 3.13 3.219.136.14.243.29.28.474.088.458-.252.899-.77.982-.376.06-.691-.043-.938-.297-.764-.783-1.526-1.569-2.288-2.353l-.95-.978-.037-.037-.383.393c-.968.997-1.934 1.995-2.907 2.99-.266.271-.616.362-1.007.263-.398-.101-.631-.349-.691-.709-.042-.25.042-.476.23-.67l3.42-3.52.06-.063" transform="translate(-1252 -586) translate(0 -1) translate(1257 592) translate(8 6)"/>
                        </g>
                    </g>
                </g>
            </g>
        </g>
    </g>
</svg>
